# xmcd
#
# Track frame offsets:
# 150
# 17538
# 35982
# 57543
# 76826
# 93209
# 105789
# 119408
# 142907
# 160009
#
# Disc length: 2410 seconds
#
#
# Revision: 0
# Processed by: cddbd v1.5.2PL0 Copyright (c) Steve Scherf et al.
# Submitted via: HACP 1.20
#
DISCID=7109680a
DTITLE=Heather Waters - Propeller
DYEAR=2008
DGENRE=
TTITLE0=Diane
TTITLE1=Wait For Me
TTITLE2=Diamond In Your Mind
TTITLE3=Say You Love Me
TTITLE4=Stone and Concrete
TTITLE5=Joy Comes Back To Me
TTITLE6=Wherever You Go
TTITLE7=Jukebox
TTITLE8=Six Ways To Sunday
TTITLE9=Castaway
EXTD=HeatherWaters.com
EXTT0=
EXTT1=
EXTT2=
EXTT3=
EXTT4=
EXTT5=
EXTT6=
EXTT7=
EXTT8=
EXTT9=
PLAYORDER=
